<?xml version="1.0" encoding="UTF-8"?>
<svg version="1.1" xmlns="http://www.w3.org/2000/svg" width="381" height="374">
<path d="M0 0 C125.73 0 251.46 0 381 0 C381 123.42 381 246.84 381 374 C255.27 374 129.54 374 0 374 C0 250.58 0 127.16 0 0 Z " fill="#FBFBFD" transform="translate(0,0)"/>
<path d="M0 0 C3.63186565 0.44486708 6.93182951 0.44872278 10.578125 0.2890625 C25.94298632 0.19035889 38.79713775 7.3180207 49.890625 17.4765625 C64.64896346 32.5598552 71.29580618 53.85617676 71.890625 74.4765625 C81.130625 74.4765625 90.370625 74.4765625 99.890625 74.4765625 C113.55810121 101.81151493 109.59999115 136.95456078 100.35546875 165.28125 C91.94403985 189.78588464 80.49903896 211.54057624 63.890625 231.4765625 C63.46974609 231.99299316 63.04886719 232.50942383 62.61523438 233.04150391 C36.62096135 264.90215257 1.12198312 287.87678052 -37.109375 302.4765625 C-37.87572266 302.77755859 -38.64207031 303.07855469 -39.43164062 303.38867188 C-53.95144842 309.04934507 -68.86111007 312.38516335 -84.109375 315.4765625 C-85.23388062 315.73796021 -85.23388062 315.73796021 -86.38110352 316.00463867 C-100.60843547 318.46561699 -116.31446973 315.93453149 -130.69750977 315.09716797 C-133.60904417 314.92925469 -136.52077927 314.77711683 -139.43383789 314.63818359 C-142.99187468 314.46834041 -146.54741781 314.27111398 -150.10290718 314.05455399 C-152.09098678 313.94013206 -154.08056921 313.85284608 -156.0700531 313.76620483 C-162.69444531 313.33226021 -167.16852525 312.81869955 -171.92286682 307.95742798 C-174.87195319 304.27671151 -175.25638221 301.58532844 -174.921875 296.9765625 C-174.14548175 290.70860725 -172.6348988 284.59784669 -171.109375 278.4765625 C-170.11647461 278.37952026 -170.11647461 278.37952026 -169.10351562 278.28051758 C-152.84588448 276.65111804 -137.01833496 274.20512964 -121.109375 270.4765625 C-120.40844727 270.31575195 -119.70751953 270.15494141 -118.98535156 269.98925781 C-99.60511252 265.47550548 -81.01445861 258.04871733 -63.109375 249.4765625 C-62.04879883 248.97406982 -62.04879883 248.97406982 -60.96679688 248.46142578 C-40.16646363 238.55908704 -20.77808399 226.28382962 -3.109375 211.4765625 C-1.60117187 210.24486328 -1.60117187 210.24486328 -0.0625 208.98828125 C10.5897396 200.17155735 20.22229441 190.34651051 29.890625 180.4765625 C34.30853651 182.12468075 37.6729693 184.41888787 41.328125 187.3515625 C42.42946172 188.22588635 43.53231822 189.0982994 44.63671875 189.96875 C45.11810303 190.35401855 45.5994873 190.73928711 46.09545898 191.13623047 C48.6233143 193.02361326 51.25718645 194.74086097 53.890625 196.4765625 C53.93888428 195.56729004 53.98714355 194.65801758 54.03686523 193.72119141 C54.87551819 178.17868021 55.85245563 162.64437319 56.8135376 147.10906982 C57.04862222 143.30711317 57.2830701 139.50511725 57.51757812 135.703125 C57.97465169 128.29423316 58.43240948 120.88538381 58.890625 113.4765625 C57.88942375 113.82908836 57.88942375 113.82908836 56.86799622 114.18873596 C50.47362345 116.43986099 44.0786488 118.68926893 37.6830492 120.93690586 C34.39767725 122.09156354 31.11251465 123.24680845 27.82788086 124.40356445 C15.14369586 128.87005051 2.45751561 133.33145767 -10.28515625 137.62890625 C-11.14682907 137.92261612 -12.00850189 138.21632599 -12.89628601 138.51893616 C-13.67985977 138.78073166 -14.46343353 139.04252716 -15.27075195 139.31225586 C-16.28224052 139.65250038 -16.28224052 139.65250038 -17.31416321 139.99961853 C-19.109375 140.4765625 -19.109375 140.4765625 -22.109375 140.4765625 C-22.109375 141.1365625 -22.109375 141.7965625 -22.109375 142.4765625 C-21.43519531 142.69441406 -20.76101562 142.91226563 -20.06640625 143.13671875 C-16.19364452 144.89148397 -13.12012632 147.28900198 -9.796875 149.9140625 C-9.15169922 150.40455078 -8.50652344 150.89503906 -7.84179688 151.40039062 C-6.20345146 152.68506147 -4.64867433 154.07473781 -3.109375 155.4765625 C-3.109375 163.3792659 -12.82720834 171.58558762 -17.953125 177.1328125 C-19.91709568 179.26756324 -21.79850861 181.45008404 -23.671875 183.6640625 C-27.17737721 187.67263222 -31.04040774 191.05400308 -35.109375 194.4765625 C-36.04523438 195.30027344 -36.98109375 196.12398437 -37.9453125 196.97265625 C-50.26610646 207.7565084 -63.66982433 216.76412505 -78.109375 224.4765625 C-79.01260498 224.96503662 -79.01260498 224.96503662 -79.93408203 225.46337891 C-104.98968604 238.90545158 -135.35070941 250.51394923 -164.109375 249.4765625 C-163.91790798 240.40798834 -162.24713905 231.95553704 -160.25244141 223.14453125 C-158.43712328 215.09564698 -156.83381208 207.02040843 -155.296875 198.9140625 C-153.11756792 187.46766676 -150.785673 176.0605375 -148.359375 164.6640625 C-144.38601793 145.99192926 -140.63115152 127.27797747 -136.90829468 108.55445862 C-136.51323675 106.57061487 -136.11664783 104.5870753 -135.71841431 102.60386658 C-134.87034314 98.37068079 -134.03870361 94.13848457 -133.29150391 89.88623047 C-133.16685257 89.19971909 -133.04220123 88.5132077 -132.91377258 87.80589294 C-132.59620015 86.04418552 -132.29307501 84.27988949 -131.99145508 82.51538086 C-130.30132772 76.69279154 -126.98130016 72.93819353 -122.109375 69.4765625 C-119.80116992 68.32245996 -118.50153224 68.3555328 -115.93505859 68.36303711 C-114.64394669 68.36315041 -114.64394669 68.36315041 -113.32675171 68.36326599 C-112.39650177 68.36842728 -111.46625183 68.37358856 -110.5078125 68.37890625 C-109.55621246 68.3803212 -108.60461243 68.38173615 -107.62417603 68.38319397 C-104.57754403 68.38880238 -101.53098487 68.40135631 -98.484375 68.4140625 C-96.42187606 68.41907642 -94.35937597 68.42363951 -92.296875 68.42773438 C-87.23434683 68.43877454 -82.17187327 68.45604483 -77.109375 68.4765625 C-76.96081055 67.39463623 -76.81224609 66.31270996 -76.65917969 65.19799805 C-73.66671879 44.94307731 -64.81668871 24.80397534 -48.76953125 11.54296875 C-33.88478107 0.60867359 -18.0795209 -2.49484817 0 0 Z " fill="#447AF4" transform="translate(192.109375,28.5234375)"/>
<path d="M0 0 C4.65422701 -0.37233816 8.05195253 -0.46507989 12.3125 1.625 C18.76633665 7.32839053 19.86790302 12.72555245 21.0625 21 C21.22967529 22.0725 21.39685059 23.145 21.5690918 24.25 C22.57891052 30.82132877 23.4571746 37.4072164 24.3125 44 C25.75876621 55.14463543 27.73887931 66.1862556 29.70513916 77.24801636 C32.14878833 91.00169982 34.46364859 104.77159665 36.6875 118.5625 C39.36336411 135.16859637 39.36336411 135.16859637 42.1875 151.75 C42.34041504 152.62277588 42.49333008 153.49555176 42.65087891 154.39477539 C43.2613449 157.86014546 43.87807174 161.32430433 44.50292969 164.78710938 C46.95592251 178.38212025 49.0273154 191.96877238 50.67456055 205.68603516 C51.02079913 208.14788756 51.51162858 210.56289649 52 213 C52.90757337 223.51892413 51.15209114 231.4487446 44.5 239.75 C35.12566351 249.55753133 21.27448665 252.99625998 8.06958008 253.39404297 C5.53207305 253.40531467 2.99440919 253.39515525 0.45703125 253.3671875 C-0.23560507 253.36328884 -0.92824139 253.35939018 -1.64186668 253.35537338 C-20.94123967 253.23461148 -40.18229353 251.73762656 -59.42181396 250.33520508 C-68.00540361 249.7110231 -76.59044397 249.10740046 -85.17578125 248.5078125 C-86.58194387 248.4087347 -86.58194387 248.4087347 -88.01651382 248.30765533 C-104.33656402 247.16347942 -120.66114887 246.341525 -137.00959778 245.72781372 C-148.40612078 245.28135036 -159.67282355 244.3324081 -171 243 C-168.29502856 240.29502856 -165.19895025 239.6132999 -161.6328125 238.49609375 C-160.1009817 238.00281836 -158.5693317 237.50898122 -157.0378418 237.01464844 C-156.23502777 236.75744019 -155.43221375 236.50023193 -154.60507202 236.23522949 C-140.31535284 231.63885877 -126.43216319 226.7619699 -113 220 C-112.36545898 219.6920752 -111.73091797 219.38415039 -111.07714844 219.06689453 C-94.93373034 211.22327145 -79.41923035 200.91095322 -66 189 C-65.08605469 188.19433594 -64.17210937 187.38867188 -63.23046875 186.55859375 C-58.66439344 182.52802372 -58.66439344 182.52802372 -54.34375 178.2421875 C-53 177 -53 177 -51 177 C-50.77957031 176.45601562 -50.55914062 175.91203125 -50.33203125 175.3515625 C-48.57072836 172.2421656 -46.16386864 169.91215295 -43.6875 167.375 C-24.68193824 147.18771541 -10.58833858 122.28973966 -2 96 C-1.74927734 95.23719727 -1.49855469 94.47439453 -1.24023438 93.68847656 C0.32836295 88.83258969 1.80042896 83.96122588 3 79 C3.26039063 77.93861816 3.52078125 76.87723633 3.7890625 75.78369141 C5.84971765 66.5974177 6.46918462 57.82397817 6.39111328 48.42138672 C6.37505739 46.13317855 6.39105155 43.84674838 6.41015625 41.55859375 C6.42994569 27.27549017 4.16626344 13.68070903 0 0 Z " fill="#E540A5" transform="translate(299,104)"/>
<path d="M0 0 C4.65422701 -0.37233816 8.05195253 -0.46507989 12.3125 1.625 C18.76633665 7.32839053 19.86790302 12.72555245 21.0625 21 C21.22967529 22.0725 21.39685059 23.145 21.5690918 24.25 C22.57891052 30.82132877 23.4571746 37.4072164 24.3125 44 C25.75876621 55.14463543 27.73887931 66.1862556 29.70513916 77.24801636 C32.14878833 91.00169982 34.46364859 104.77159665 36.6875 118.5625 C39.36336411 135.16859637 39.36336411 135.16859637 42.1875 151.75 C42.41687256 153.05916382 42.41687256 153.05916382 42.65087891 154.39477539 C43.2613449 157.86014546 43.87807174 161.32430433 44.50292969 164.78710938 C46.95592251 178.38212025 49.0273154 191.96877238 50.67456055 205.68603516 C51.02079913 208.14788756 51.51162858 210.56289649 52 213 C52.90757337 223.51892413 51.15209114 231.4487446 44.5 239.75 C36.06434108 248.5754768 23.72785188 252.53019936 11.734375 253.17578125 C9.14712201 253.18573222 6.58304396 253.1397639 4 253 C5.77276691 251.13987935 7.17222659 249.90284654 9.4375 248.625 C13.48507445 246.05824547 16.24592757 242.45264539 18 238 C21.67082701 220.24851321 18.35134452 200.69399307 16.98131561 182.78345871 C16.51222514 176.61204748 16.06247303 170.43917179 15.61048126 164.26648903 C15.49215219 162.65102165 15.37357446 161.03557247 15.25475311 159.42014122 C14.32826409 146.81255129 13.47007048 134.20153525 12.66015625 121.5859375 C12.57871211 120.3187642 12.57871211 120.3187642 12.49562263 119.02599144 C12.01807704 111.58626332 11.54429414 104.14630071 11.07827759 96.70584106 C10.05383735 80.35535368 8.98706865 64.00799996 7.72264481 47.67405891 C7.60313443 46.11890543 7.48627433 44.56354526 7.37247849 43.00796318 C6.29710995 28.40238256 4.27898906 14.05086479 0 0 Z " fill="#C22180" transform="translate(299,104)"/>
<path d="M0 0 C15.55414936 8.0050671 24.59911205 20.56858629 30.375 36.87890625 C32.65271481 44.6089009 33.11497002 51.99140456 33 60 C8.26735695 60.3300055 -16.3092806 59.39909735 -41 58 C-41.42745317 38.77410621 -34.26166234 23.29761214 -21.375 9.30078125 C-15.59895502 3.70523768 -8.24380661 -2.44260936 0 0 Z " fill="#FBFDFD" transform="translate(194,41)"/>
<path d="M0 0 C8.84569926 1.68108312 17.37514912 9.54660152 22.5 16.5625 C30.88476578 29.15811732 37 43.68766567 37 59 C32.38 59 27.76 59 23 59 C22.76925781 57.50210938 22.53851563 56.00421875 22.30078125 54.4609375 C19.0102862 33.86443064 13.40450911 16.34943914 0 0 Z " fill="#F7FBFD" transform="translate(216,43)"/>
<path d="M0 0 C0.66 0.33 1.32 0.66 2 1 C1.50371094 1.51046875 1.00742188 2.0209375 0.49609375 2.546875 C-11.35234202 15.22717438 -16.77054458 29.22211916 -20 46 C-20.39513096 47.95847517 -20.79087295 49.91682727 -21.1875 51.875 C-21.455625 53.23625 -21.72375 54.5975 -22 56 C-26.62 56 -31.24 56 -36 56 C-36 50.32890844 -35.5286737 46.39467752 -33.8125 41.1875 C-33.58618896 40.48753906 -33.35987793 39.78757813 -33.12670898 39.06640625 C-27.54132727 22.28897979 -17.68675393 9.42652767 -2 1 C-1.34 0.67 -0.68 0.34 0 0 Z " fill="#F6FAFD" transform="translate(163,42)"/>
<path d="M0 0 C5.02365688 0.61860323 9.90699779 0.45939095 14.95703125 0.32421875 C17.93359375 0.484375 17.93359375 0.484375 19.93359375 2.484375 C11.35028018 3.56827467 3.55144566 3.33828351 -5.00390625 2.359375 C-19.48252175 0.82890495 -32.83159862 2.85130597 -45.06640625 11.484375 C-52.62818738 17.65352464 -59.24975209 24.97275327 -64.06640625 33.484375 C-64.39640625 32.824375 -64.72640625 32.164375 -65.06640625 31.484375 C-54.94035277 16.46457531 -43.96508724 5.1726651 -25.94140625 0.171875 C-17.64261905 -1.41885094 -8.34823232 -1.14858908 0 0 Z " fill="#3AB9FA" transform="translate(192.06640625,28.515625)"/>
<path d="M0 0 C0 0.33 0 0.66 0 1 C-0.77714355 1.09498779 -1.55428711 1.18997559 -2.35498047 1.2878418 C-5.86515461 1.73048836 -9.36961107 2.20849136 -12.875 2.6875 C-14.09832031 2.83638672 -15.32164063 2.98527344 -16.58203125 3.13867188 C-17.74863281 3.30302734 -18.91523438 3.46738281 -20.1171875 3.63671875 C-21.19597168 3.77811279 -22.27475586 3.91950684 -23.38623047 4.06518555 C-26.21431004 4.74954247 -26.21431004 4.74954247 -27.328125 7.43774414 C-27.54984375 8.28328857 -27.7715625 9.12883301 -28 10 C-28.20882813 10.77859375 -28.41765625 11.5571875 -28.6328125 12.359375 C-29.79892114 18.02333126 -30.18651111 23.21815557 -30 29 C-29.34 29 -28.68 29 -28 29 C-27.46375 29.61875 -26.9275 30.2375 -26.375 30.875 C-23.09143627 33.81292544 -20.29206826 34.14158635 -16 35 C-16 35.33 -16 35.66 -16 36 C-22.76112026 36.71169687 -22.76112026 36.71169687 -26.01953125 34.83984375 C-29.43510334 32.02828862 -32.18746825 29.46892464 -33 25 C-32.95581514 17.16455152 -30.88328082 9.55681235 -29 2 C-25.85495307 1.65896535 -22.70886583 1.32862537 -19.5625 1 C-18.24475586 0.85691406 -18.24475586 0.85691406 -16.90039062 0.7109375 C-11.23241145 0.12531604 -5.69811032 -0.09274645 0 0 Z " fill="#6153EB" transform="translate(50,305)"/>
<path d="M0 0 C-3.465 1.485 -3.465 1.485 -7 3 C-1.16310608 4.47754009 4.88556845 4.34303578 10.87109375 4.51757812 C11.74121094 4.55173828 12.61132812 4.58589844 13.5078125 4.62109375 C14.29816895 4.6461499 15.08852539 4.67120605 15.90283203 4.69702148 C18 5 18 5 21 7 C7.49959855 7.24179823 -5.60390033 6.71470076 -19 5 C-16.4156782 2.4156782 -14.10624423 1.89598837 -10.625 0.8125 C-9.48289063 0.44769531 -8.34078125 0.08289063 -7.1640625 -0.29296875 C-4.18525347 -0.95860385 -2.79128097 -1.07938697 0 0 Z " fill="#A53AA8" transform="translate(147,342)"/>
<path d="M0 0 C0.66 0.33 1.32 0.66 2 1 C-7.06046026 6.83405246 -16.41476058 11.82446525 -26.125 16.5 C-27.21546631 17.02819336 -28.30593262 17.55638672 -29.42944336 18.10058594 C-30.46593018 18.59333008 -31.50241699 19.08607422 -32.5703125 19.59375 C-33.49602051 20.03396484 -34.42172852 20.47417969 -35.37548828 20.92773438 C-37.926053 21.96978835 -40.28655419 22.56094301 -43 23 C-43 22.34 -43 21.68 -43 21 C-42.1793103 20.66174194 -42.1793103 20.66174194 -41.34204102 20.31665039 C-27.91058084 14.7502449 -14.44017567 9.04274981 -2.15625 1.1796875 C-1.4446875 0.79039062 -0.733125 0.40109375 0 0 Z " fill="#A932A0" transform="translate(206,313)"/>
<path d="M0 0 C1.32 0.33 2.64 0.66 4 1 C3.67 1.66 3.34 2.32 3 3 C3.54189056 5.42802897 4.14770619 7.79317727 4.8125 10.1875 C8.1988139 23.11348563 9.34001846 35.68261047 9 49 C8.67 49 8.34 49 8 49 C7.93006836 48.23558594 7.86013672 47.47117188 7.78808594 46.68359375 C6.45615575 32.44778682 4.97022669 18.7527222 1 5 C0.64737538 3.33730798 0.30624649 1.67185585 0 0 Z " fill="#982081" transform="translate(299,104)"/>
<path d="M0 0 C0.33 0.66 0.66 1.32 1 2 C-5.6375489 10.36398207 -12.69264895 18.22280235 -20 26 C-20.99 25.67 -21.98 25.34 -23 25 C-21.625 23.5 -21.625 23.5 -20 22 C-19.34 22 -18.68 22 -18 22 C-17.79117188 21.47277344 -17.58234375 20.94554687 -17.3671875 20.40234375 C-15.42927353 16.99715205 -12.81805324 14.38794554 -10.125 11.5625 C-6.58347566 7.81847975 -3.1585903 4.08175316 0 0 Z " fill="#DC48AB" transform="translate(266,259)"/>
<path d="M0 0 C0.33 0 0.66 0 1 0 C2.98093488 29.85551855 2.98093488 29.85551855 -1 38 C-1.66 38.66 -2.32 39.32 -3 40 C-2.85866501 38.22880197 -2.71176792 36.45804713 -2.5625 34.6875 C-2.48128906 33.70136719 -2.40007812 32.71523437 -2.31640625 31.69921875 C-2 29 -2 29 -1 26 C-0.85013589 24.0093556 -0.75171962 22.01464609 -0.68359375 20.01953125 C-0.62075195 18.27446289 -0.62075195 18.27446289 -0.55664062 16.49414062 C-0.51732422 15.27919922 -0.47800781 14.06425781 -0.4375 12.8125 C-0.39431641 11.58595703 -0.35113281 10.35941406 -0.30664062 9.09570312 C-0.2004691 6.06391619 -0.09842048 3.03204685 0 0 Z " fill="#EA7CB1" transform="translate(306,142)"/>
<path d="M0 0 C0.66 0.33 1.32 0.66 2 1 C1.46632812 1.38929687 0.93265625 1.77859375 0.3828125 2.1796875 C-8.96391134 9.19781578 -17.00130813 16.90464051 -23 27 C-23.33 26.34 -23.66 25.68 -24 25 C-17.03520879 14.66924586 -10.55095018 6.79336832 0 0 Z " fill="#2DB7F8" transform="translate(151,35)"/>
<path d="M0 0 C0 0.33 0 0.66 0 1 C-0.77190674 1.10546143 -1.54381348 1.21092285 -2.33911133 1.31958008 C-5.83218567 1.80423987 -9.32222038 2.30812433 -12.8125 2.8125 C-14.63491211 3.0609668 -14.63491211 3.0609668 -16.49414062 3.31445312 C-18.23920898 3.5706543 -18.23920898 3.5706543 -20.01953125 3.83203125 C-21.09307861 3.98389893 -22.16662598 4.1357666 -23.27270508 4.29223633 C-26.1257783 5.03264088 -27.20103761 5.72058635 -29 8 C-29 6.02 -29 4.04 -29 2 C-25.85495307 1.65896535 -22.70886583 1.32862537 -19.5625 1 C-18.24475586 0.85691406 -18.24475586 0.85691406 -16.90039062 0.7109375 C-11.23241145 0.12531604 -5.69811032 -0.09274645 0 0 Z " fill="#4F47EE" transform="translate(50,305)"/>
<path d="M0 0 C-0.50516166 4.39102062 -1.93793905 6.49266926 -4.9375 9.6875 C-5.64777344 10.45449219 -6.35804688 11.22148438 -7.08984375 12.01171875 C-8.37967324 13.354302 -9.68352936 14.68352936 -11 16 C-10.50128936 11.54326841 -8.97995638 9.42312822 -5.9375 6.1875 C-5.20402344 5.39730469 -4.47054687 4.60710938 -3.71484375 3.79296875 C-3.14894531 3.20128906 -2.58304688 2.60960937 -2 2 C-6.455 3.485 -6.455 3.485 -11 5 C-7.17656953 1.17656953 -5.35190155 -0.28929198 0 0 Z " fill="#28AAF5" transform="translate(166,41)"/>
<path d="M0 0 C-3.465 1.485 -3.465 1.485 -7 3 C-6.34 3.66 -5.68 4.32 -5 5 C-9.62 5 -14.24 5 -19 5 C-16.4156782 2.4156782 -14.10624423 1.89598837 -10.625 0.8125 C-9.48289063 0.44769531 -8.34078125 0.08289063 -7.1640625 -0.29296875 C-4.18525347 -0.95860385 -2.79128097 -1.07938697 0 0 Z " fill="#9824A0" transform="translate(147,342)"/>
<path d="M0 0 C8.91 0.66 17.82 1.32 27 2 C27 2.33 27 2.66 27 3 C17.76 3 8.52 3 -1 3 C-0.67 2.01 -0.34 1.02 0 0 Z " fill="#AC2FA4" transform="translate(170,347)"/>
<path d="M0 0 C0.66 0 1.32 0 2 0 C2.53625 0.61875 3.0725 1.2375 3.625 1.875 C6.90856373 4.81292544 9.70793174 5.14158635 14 6 C14 6.33 14 6.66 14 7 C6.23214286 7.66964286 6.23214286 7.66964286 2.5 4.625 C0 2 0 2 0 0 Z " fill="#5C43ED" transform="translate(20,334)"/>
<path d="M0 0 C-1.93370231 1.00732399 -3.87210306 2.00563288 -5.8125 3 C-7.43091797 3.8353125 -7.43091797 3.8353125 -9.08203125 4.6875 C-12 6 -12 6 -15 6 C-15 5.34 -15 4.68 -15 4 C-13.06767179 3.13419713 -11.12892806 2.28270059 -9.1875 1.4375 C-8.10855469 0.96183594 -7.02960938 0.48617188 -5.91796875 -0.00390625 C-3 -1 -3 -1 0 0 Z " fill="#614EEC" transform="translate(126,282)"/>
<path d="M0 0 C-1.26418246 0.69965443 -2.53665402 1.38434763 -3.8125 2.0625 C-4.52019531 2.44535156 -5.22789062 2.82820313 -5.95703125 3.22265625 C-8 4 -8 4 -11 3 C-10 1 -10 1 -7.1875 -0.1875 C-4.02095982 -0.9946573 -2.98482205 -0.91292822 0 0 Z " fill="#A537A6" transform="translate(159,338)"/>
<path d="M0 0 C0.66 0.33 1.32 0.66 2 1 C-4.28571429 6.57142857 -4.28571429 6.57142857 -8 7 C-5.42215154 4.35247996 -3.08351902 2.05567935 0 0 Z " fill="#685AEE" transform="translate(176,250)"/>
<path d="M0 0 C0.99 0.33 1.98 0.66 3 1 C2.01 3.97 1.02 6.94 0 10 C-0.66 9.34 -1.32 8.68 -2 8 C-1.34 8 -0.68 8 0 8 C0 5.36 0 2.72 0 0 Z " fill="#8B70EF" transform="translate(246,217)"/>
<path d="M0 0 C0.66 0.99 1.32 1.98 2 3 C0.35 4.98 -1.3 6.96 -3 9 C-3.66 8.67 -4.32 8.34 -5 8 C-3.35 5.36 -1.7 2.72 0 0 Z " fill="#EC5AAC" transform="translate(279,239)"/>
<path d="M0 0 C1.32 0.33 2.64 0.66 4 1 C3.67 1.66 3.34 2.32 3 3 C3.185625 3.66 3.37125 4.32 3.5625 5 C3.706875 5.66 3.85125 6.32 4 7 C3.34 7.66 2.68 8.32 2 9 C1.34 6.03 0.68 3.06 0 0 Z " fill="#A4369C" transform="translate(299,104)"/>
<path d="M0 0 C0.66 0.33 1.32 0.66 2 1 C0.35 3.64 -1.3 6.28 -3 9 C-3.33 7.68 -3.66 6.36 -4 5 C-3.34 4.01 -2.68 3.02 -2 2 C-1.34 2 -0.68 2 0 2 C0 1.34 0 0.68 0 0 Z " fill="#2BB1F9" transform="translate(138,61)"/>
</svg>
